# xmcd CD database file
# Copyright (C) 1996 Ti Kan
#
# Track frame offsets:
#	150
#	2243
#	24572
#	49980
#	93132
#	122487
#	144184
#	186012
#	225274
# Disc length: 3455 seconds
#
# Revision: 1
# Processed by: cddbd v1.5.1PL2 Copyright (c) Steve Scherf et al.
# Submitted via: CDCOPY 4.900
#
DISCID=620d7d09
DTITLE=Michel Sajrawy - Yathrib
DYEAR=1900
DGENRE=
TTITLE0=Intro
TTITLE1=Yatrib
TTITLE2=Al-Ein
TTITLE3=In Memory of Om Kalthoun
TTITLE4=Flying Carpet
TTITLE5=Four Commandments
TTITLE6=Father
TTITLE7=Spiritual Oasis
TTITLE8=Karm Al-Sheikh
EXTD=
EXTT0=
EXTT1=
EXTT2=
EXTT3=
EXTT4=
EXTT5=
EXTT6=
EXTT7=
EXTT8=
PLAYORDER=
